<?xml version="1.0" standalone="no"?>
<!DOCTYPE svg PUBLIC "-//W3C//DTD SVG 20010904//EN"
 "http://www.w3.org/TR/2001/REC-SVG-20010904/DTD/svg10.dtd">
<svg version="1.0" xmlns="http://www.w3.org/2000/svg"
 width="150.000000pt" height="150.000000pt" viewBox="0 0 150.000000 150.000000"
 preserveAspectRatio="xMidYMid meet">
<metadata>
Created by potrace 1.11, written by Peter Selinger 2001-2013
</metadata>
<g transform="translate(0.000000,150.000000) scale(0.100000,-0.100000)"
fill="#000000" stroke="none">
<path d="M302 1100 c-6 -11 -31 -29 -54 -41 -24 -12 -54 -32 -68 -44 -16 -15
-41 -25 -70 -27 -44 -3 -45 -4 -50 -43 -3 -22 -13 -57 -23 -77 -23 -50 -21
-105 4 -153 12 -22 22 -56 23 -75 1 -35 1 -35 48 -35 37 -1 54 -7 75 -27 16
-14 44 -33 63 -43 19 -9 43 -27 52 -39 l17 -21 16 23 c9 12 33 29 53 38 20 8
50 27 65 42 20 19 39 27 70 28 23 1 45 2 48 3 3 0 5 13 3 29 -2 15 6 44 17 65
32 63 35 116 8 168 -12 24 -23 60 -24 79 -1 35 -1 35 -50 38 -30 2 -53 9 -58
17 -4 8 -29 27 -55 41 -26 15 -58 38 -72 50 -25 23 -26 23 -38 4z"/>
<path d="M687 976 c-6 -19 -1 -195 6 -202 17 -17 37 7 37 45 0 38 2 40 28 37
15 -2 33 -4 40 -5 7 -1 12 -16 12 -40 0 -33 3 -38 22 -37 25 1 32 28 18 70 -7
20 -7 33 0 40 17 17 11 62 -11 81 -23 22 -146 30 -152 11z m123 -41 c19 -22
-5 -45 -46 -45 -31 0 -34 3 -34 30 0 27 3 30 34 30 18 0 39 -7 46 -15z"/>
<path d="M885 984 c-6 -3 -9 -45 -7 -109 3 -92 5 -105 20 -103 13 2 18 18 22
72 5 69 5 69 20 40 48 -93 88 -132 106 -103 7 12 9 198 1 205 -2 2 -12 2 -21
-2 -12 -5 -16 -20 -17 -68 0 -51 -2 -58 -12 -43 -7 10 -25 39 -42 64 -28 43
-46 55 -70 47z"/>
<path d="M1107 979 c-25 -15 -39 -56 -27 -79 6 -11 35 -27 65 -36 58 -19 69
-36 34 -55 -18 -9 -27 -7 -50 10 -32 23 -59 27 -59 9 1 -46 89 -75 141 -47 27
14 42 55 29 79 -6 11 -35 27 -65 36 -53 17 -68 35 -42 51 17 11 50 4 60 -13
10 -18 47 -18 47 0 0 40 -89 70 -133 45z"/>
<path d="M1268 983 c-2 -4 -4 -53 -4 -108 1 -93 2 -100 21 -100 19 0 20 7 20
105 0 90 -2 105 -17 108 -9 2 -18 -1 -20 -5z"/>
<path d="M1326 974 c-7 -17 3 -24 36 -24 l28 0 0 -91 c0 -88 1 -90 23 -87 21
3 22 7 22 88 0 61 4 85 13 86 6 1 21 2 33 3 14 1 19 7 17 19 -3 14 -15 17 -85
17 -55 1 -84 -3 -87 -11z"/>
<path d="M1217 733 c-11 -10 -8 -133 3 -133 6 0 10 30 10 70 0 70 -1 76 -13
63z"/>
<path d="M688 723 c-2 -5 -3 -19 -2 -33 1 -14 2 -40 3 -57 1 -32 2 -33 40 -29
22 2 44 7 50 10 12 8 11 86 -2 104 -10 13 -84 17 -89 5z m72 -28 c0 -9 -9 -15
-25 -15 -24 0 -32 10 -18 23 12 13 43 7 43 -8z m-2 -44 c11 -6 11 -10 0 -17
-20 -15 -41 -11 -44 9 -2 18 21 23 44 8z"/>
<path d="M812 688 c-28 -28 -3 -88 37 -88 10 0 24 7 32 16 11 13 9 15 -16 12
-15 -2 -30 2 -32 9 -2 7 3 10 14 7 30 -7 47 10 34 35 -13 23 -50 28 -69 9z
m48 -18 c0 -5 -9 -10 -21 -10 -11 0 -17 5 -14 10 3 6 13 10 21 10 8 0 14 -4
14 -10z"/>
<path d="M903 653 c3 -51 20 -58 27 -12 3 18 11 34 18 37 13 4 13 3 16 -42 2
-46 26 -45 26 1 0 52 -9 61 -52 60 l-37 -1 2 -43z"/>
<path d="M1016 684 c-9 -8 -16 -24 -16 -34 0 -26 29 -53 51 -47 23 6 26 -11 4
-19 -8 -4 -22 -1 -30 6 -20 17 -32 5 -15 -15 14 -16 47 -20 68 -6 9 5 14 30
15 67 l2 58 -32 3 c-19 2 -38 -4 -47 -13z m52 -28 c6 -27 -14 -42 -32 -27 -12
10 -13 18 -5 33 12 22 32 19 37 -6z"/>
<path d="M1119 684 c-12 -15 -11 -16 19 -10 40 9 42 -2 2 -15 -19 -7 -30 -18
-30 -30 0 -21 0 -21 48 -25 l33 -2 -3 46 c-3 42 -6 47 -29 50 -15 2 -32 -4
-40 -14z m46 -53 c-3 -6 -14 -11 -23 -11 -15 1 -15 2 2 15 21 16 32 13 21 -4z"/>
<path d="M1250 655 c0 -46 1 -47 53 -49 26 -2 27 0 27 46 0 47 -19 70 -21 26
-3 -48 -4 -53 -19 -53 -9 0 -16 10 -16 23 -3 47 -4 52 -14 52 -5 0 -10 -20
-10 -45z"/>
<path d="M1350 649 c0 -46 19 -72 21 -29 2 35 4 39 17 52 18 18 15 26 -13 26
-23 0 -25 -4 -25 -49z"/>
<path d="M1414 663 c2 -52 10 -61 51 -60 l36 1 -3 45 c-3 49 -23 64 -23 19 -1
-33 -22 -59 -29 -37 -3 8 -6 25 -8 38 -5 41 -25 36 -24 -6z"/>
<path d="M202 450 c0 -14 2 -19 5 -12 2 6 2 18 0 25 -3 6 -5 1 -5 -13z"/>
<path d="M256 462 c-2 -4 -1 -14 5 -22 7 -12 9 -10 9 8 0 23 -5 28 -14 14z"/>
<path d="M287 456 c-3 -8 -2 -18 3 -21 13 -8 24 15 12 27 -6 6 -11 4 -15 -6z"/>
<path d="M337 450 c-3 -11 -1 -20 4 -20 5 0 9 9 9 20 0 11 -2 20 -4 20 -2 0
-6 -9 -9 -20z"/>
<path d="M390 451 c0 -25 6 -27 13 -6 4 8 2 17 -3 20 -6 4 -10 -3 -10 -14z"/>
<path d="M231 444 c0 -11 3 -14 6 -6 3 7 2 16 -1 19 -3 4 -6 -2 -5 -13z"/>
<path d="M360 450 c0 -5 5 -10 11 -10 5 0 7 5 4 10 -3 6 -8 10 -11 10 -2 0 -4
-4 -4 -10z"/>
<path d="M474 409 c-3 -6 -1 -16 5 -22 9 -9 11 -8 5 6 -5 13 -2 16 10 11 9 -3
16 -4 16 -1 0 11 -30 16 -36 6z"/>
<path d="M21 400 c-9 -5 -4 -9 13 -12 14 -3 26 -2 26 2 0 12 -26 19 -39 10z"/>
<path d="M160 406 c0 -2 7 -9 15 -16 9 -7 15 -8 15 -2 0 5 -7 12 -15 16 -8 3
-15 4 -15 2z"/>
<path d="M235 400 c-3 -5 -13 -7 -23 -4 -14 5 -14 4 -2 -4 9 -7 19 -7 25 -2 7
6 16 5 23 -2 8 -8 12 -9 12 -1 0 14 -28 25 -35 13z"/>
<path d="M340 398 c0 -4 9 -8 20 -8 11 0 20 4 20 8 0 4 -9 8 -20 8 -11 0 -20
-4 -20 -8z"/>
<path d="M105 390 c-3 -6 1 -7 9 -4 18 7 21 14 7 14 -6 0 -13 -4 -16 -10z"/>
<path d="M513 386 c-4 -5 -1 -6 5 -2 5 3 12 2 14 -3 2 -5 13 -4 27 3 24 13 24
13 -8 12 -18 0 -35 -5 -38 -10z"/>
<path d="M595 390 c-3 -6 1 -7 9 -4 18 7 21 14 7 14 -6 0 -13 -4 -16 -10z"/>
</g>
</svg>
